Normalized EMG Linear Envelopes
nRows=112
nColumns=4

endheader
time	 med_gas_r	  soleus_r	 tib_ant_r	
2.8629	  0.010061	  0.011548	  0.004130	
2.93448	  0.013356	  0.011765	  0.004104	
3.00605	  0.015312	  0.011852	  0.003920	
3.07762	  0.015677	  0.011808	  0.003714	
3.14919	  0.015197	  0.011700	  0.003975	
3.22077	  0.014855	  0.011654	  0.005240	
3.29234	  0.015207	  0.011831	  0.007414	
3.36391	  0.015995	  0.012226	  0.009372	
3.43548	  0.016455	  0.012584	  0.009722	
3.50706	  0.016246	  0.012612	  0.008190	
3.57863	  0.015730	  0.012257	  0.005885	
3.6502	  0.015410	  0.011803	  0.004128	
3.72177	  0.015483	  0.011635	  0.003482	
3.79335	  0.015767	  0.011809	  0.003896	
3.86492	  0.015988	  0.012008	  0.005069	
3.93649	  0.016118	  0.011977	  0.006295	
4.00806	  0.016281	  0.011766	  0.006664	
4.07964	  0.016489	  0.011493	  0.005987	
4.15121	  0.016667	  0.011165	  0.004934	
4.22278	  0.016742	  0.010858	  0.004131	
4.29435	  0.016542	  0.010804	  0.003704	
4.36593	  0.015861	  0.011102	  0.003574	
4.4375	  0.014833	  0.011626	  0.003719	
4.50907	  0.014104	  0.012288	  0.004211	
4.58065	  0.014360	  0.013062	  0.005088	
4.65222	  0.015583	  0.013694	  0.006014	
4.72379	  0.016982	  0.013748	  0.006267	
4.79536	  0.017670	  0.012929	  0.005541	
4.86694	  0.017026	  0.011102	  0.004429	
4.93851	  0.014565	  0.008156	  0.003711	
5.01008	  0.010283	  0.004681	  0.003716	
5.08165	  0.006029	  0.003591	  0.004457	
5.15323	  0.007338	  0.011368	  0.006046	
5.2248	  0.023871	  0.036283	  0.009319	
5.29637	  0.065275	  0.079783	  0.015755	
5.36794	  0.130725	  0.128439	  0.025470	
5.43952	  0.203378	  0.164623	  0.035872	
5.51109	  0.265457	  0.185606	  0.043664	
5.58266	  0.316337	  0.201602	  0.047344	
5.65423	  0.364867	  0.220657	  0.047933	
5.72581	  0.412969	  0.244536	  0.048548	
5.79738	  0.456757	  0.273681	  0.051855	
5.86895	  0.495230	  0.307716	  0.057129	
5.94052	  0.529590	  0.340394	  0.061508	
6.0121	  0.557428	  0.363741	  0.063187	
6.08367	  0.574577	  0.377994	  0.062232	
6.15524	  0.580177	  0.386179	  0.060431	
6.22681	  0.579808	  0.386105	  0.060197	
6.29839	  0.588271	  0.378746	  0.062178	
6.36996	  0.623077	  0.372884	  0.065350	
6.44153	  0.691063	  0.376284	  0.068700	
6.5131	  0.778645	  0.391047	  0.071002	
6.58468	  0.850995	  0.412421	  0.070774	
6.65625	  0.873980	  0.427599	  0.067621	
6.72782	  0.846175	  0.427577	  0.063032	
6.7994	  0.798445	  0.419843	  0.059861	
6.87097	  0.760746	  0.417078	  0.059866	
6.94254	  0.736253	  0.418569	  0.061609	
7.01411	  0.708031	  0.415028	  0.062433	
7.08569	  0.667438	  0.405986	  0.061508	
7.15726	  0.627795	  0.400666	  0.059854	
7.22883	  0.607962	  0.405209	  0.058844	
7.3004	  0.609602	  0.416354	  0.059405	
7.37198	  0.617157	  0.426200	  0.061802	
7.44355	  0.618696	  0.430714	  0.065400	
7.51512	  0.615904	  0.432583	  0.069022	
7.58669	  0.614879	  0.436506	  0.071647	
7.65827	  0.620301	  0.445085	  0.072924	
7.72984	  0.635998	  0.459338	  0.074062	
7.80141	  0.661474	  0.476836	  0.077043	
7.87298	  0.687620	  0.487807	  0.081428	
7.94456	  0.699169	  0.482954	  0.083855	
8.01613	  0.688278	  0.465703	  0.081768	
8.0877	  0.667151	  0.447839	  0.076139	
8.15927	  0.658464	  0.436340	  0.070251	
8.23085	  0.671730	  0.430138	  0.066794	
8.30242	  0.692269	  0.427830	  0.066658	
8.37399	  0.695442	  0.432066	  0.069675	
8.44556	  0.673870	  0.442860	  0.074666	
8.51714	  0.646814	  0.456080	  0.079238	
8.58871	  0.639452	  0.469176	  0.081392	
8.66028	  0.653687	  0.478008	  0.080715	
8.73185	  0.667877	  0.476514	  0.077448	
8.80343	  0.670563	  0.466110	  0.072090	
8.875	  0.670811	  0.453721	  0.066220	
8.94657	  0.668594	  0.441792	  0.061863	
9.01815	  0.648734	  0.428419	  0.059814	
9.08972	  0.607396	  0.412286	  0.059796	
9.16129	  0.557952	  0.394110	  0.061044	
9.23286	  0.512344	  0.375747	  0.061878	
9.30444	  0.473531	  0.358855	  0.060654	
9.37601	  0.443365	  0.345092	  0.057531	
9.44758	  0.426994	  0.337201	  0.054425	
9.51915	  0.426660	  0.337094	  0.053156	
9.59073	  0.432647	  0.341699	  0.053621	
9.6623	  0.429757	  0.343278	  0.054066	
9.73387	  0.412590	  0.333739	  0.052648	
9.80544	  0.383536	  0.308736	  0.048559	
9.87702	  0.344377	  0.271221	  0.042831	
9.94859	  0.300394	  0.230362	  0.037676	
10.0202	  0.262159	  0.194916	  0.034499	
10.0917	  0.235282	  0.168671	  0.032967	
10.1633	  0.216792	  0.151008	  0.031654	
10.2349	  0.202659	  0.138982	  0.029592	
10.3065	  0.188389	  0.129202	  0.027110	
10.378	  0.167390	  0.119214	  0.024869	
10.4496	  0.138733	  0.107972	  0.022972	
10.5212	  0.109418	  0.095752	  0.021339	
10.5927	  0.084653	  0.083269	  0.019889	
10.6643	  0.063047	  0.070982	  0.017906	
10.7359	  0.042000	  0.059398	  0.014165	
10.8075	  0.020827	  0.048597	  0.008576	
